<svg width="60" height="60" viewBox="0 0 60 60" fill="none" xmlns="http://www.w3.org/2000/svg">
<rect width="60" height="60" rx="14" fill="#159E64"/>
<path d="M25.2244 36.5134C25.2222 36.4749 25.22 36.4374 25.2145 36.3988C25.1804 36.0076 25.0117 35.6748 24.8685 35.4279L23.5956 33.2448L23.1581 32.5009C23.0777 32.3753 22.9366 32.3014 22.7834 32.3091C22.6368 32.3169 22.5112 32.3973 22.4429 32.5251L20.9077 35.2152L20.749 35.4808C20.641 35.6726 20.5231 35.9051 20.468 36.1795C20.4416 36.3283 20.4294 36.4815 20.4294 36.6578C20.4294 37.0424 20.5209 37.4072 20.7116 37.7786C21.1292 38.5544 21.9315 39.0338 22.8054 39.0338C23.7113 39.0393 24.5346 38.5522 24.9522 37.7576C25.0624 37.5472 25.1429 37.3069 25.1925 37.0501C25.22 36.9234 25.2333 36.7856 25.2333 36.6314C25.2333 36.6203 25.2321 36.6093 25.231 36.5983C25.2277 36.5707 25.2266 36.5421 25.2244 36.5134ZM24.6756 36.9465C24.6348 37.1581 24.5709 37.3499 24.485 37.5141C24.1632 38.1268 23.5295 38.507 22.8297 38.507C22.8231 38.507 22.8165 38.507 22.8099 38.507C22.1277 38.507 21.5039 38.1334 21.181 37.5339C21.0323 37.2441 20.9595 36.9576 20.9595 36.66C20.9595 36.5123 20.9694 36.3933 20.9893 36.2787C21.0279 36.0825 21.1237 35.8974 21.2075 35.7486L21.3662 35.4841L22.811 32.9516L24.2833 35.4687L24.4133 35.6946C24.5863 35.9922 24.6712 36.2247 24.6899 36.4495C24.6899 36.4528 24.691 36.4572 24.691 36.4605C24.6944 36.4892 24.6966 36.519 24.6977 36.5476C24.6999 36.5818 24.7021 36.6159 24.7054 36.6501C24.7043 36.7603 24.6955 36.854 24.6756 36.9465Z" fill="white"/>
<path d="M49 28.625C49 28.1897 48.7377 27.7919 48.3322 27.6133C48.3267 27.6111 48.3211 27.6089 48.3156 27.6067C48.1735 27.5549 48.0423 27.5307 47.9134 27.5307H42.8892V24.2973C43.3256 24.0471 43.5989 23.5865 43.5989 23.0784C43.5989 22.5583 43.3179 22.0888 42.8682 21.8397C42.8297 21.7405 42.7349 21.6711 42.6225 21.6711H42.1993C42.196 21.6711 42.1927 21.6722 42.1894 21.6722H32.7548V19.2191C33.3058 18.9226 33.6662 18.3407 33.6662 17.7159C33.6662 17.0822 33.3102 16.5047 32.746 16.2017C32.7173 16.086 32.6148 16 32.4903 16H31.9503H13.7005C13.48 16 13.2651 16.0419 13.0591 16.1267C12.4166 16.3967 12.0011 17.0205 12.0011 17.7148C12.0011 18.3418 12.356 18.9237 12.8982 19.218V23.7022C12.8982 23.7143 12.9004 23.7264 12.9015 23.7385V28.182C12.3482 28.4696 12 29.0394 12 29.6808C12 30.3177 12.3471 30.8897 12.8971 31.1862V40.1524C12.3549 40.4466 12 41.0285 12 41.6556C12 42.3532 12.4276 42.9901 13.0602 43.237C13.264 43.3208 13.48 43.3626 13.6994 43.3626H31.9503C31.9745 43.3626 31.9988 43.3604 32.023 43.3593H32.4892H42.2004H42.6247H47.9134C48.0721 43.3593 48.2098 43.3318 48.3255 43.2789C48.7355 43.1103 49 42.7157 49 42.2727C49 41.8903 48.8016 41.5443 48.4898 41.3503V36.3702C48.8049 36.1674 49 35.8202 49 35.4434C49 35.0631 48.8038 34.7182 48.4898 34.522V29.5441C48.8049 29.3502 49 29.0052 49 28.625ZM42.5277 42.773C42.4318 42.8116 42.3183 42.8314 42.2015 42.8314H33.1912C33.4887 42.5196 33.6673 42.0997 33.6673 41.6556C33.6673 41.4594 33.6309 41.2665 33.5626 41.0836H42.2015C42.3194 41.0836 42.4274 41.1045 42.5145 41.1453C42.5178 41.1475 42.5211 41.1486 42.5255 41.1497C42.574 41.1696 42.6203 41.1949 42.6644 41.2236C42.7084 41.2522 42.7503 41.2853 42.79 41.3216C42.79 41.3216 42.79 41.3228 42.7911 41.3228C42.823 41.3525 42.8528 41.3856 42.8804 41.4186C42.9189 41.466 42.952 41.5167 42.9795 41.5696C43.0413 41.693 43.0721 41.8253 43.0721 41.9619C43.071 42.3179 42.8528 42.6441 42.5277 42.773ZM32.1035 39.9551C32.0528 39.9507 32.0021 39.9474 31.9514 39.9474H13.7005C13.6498 39.9474 13.5991 39.9507 13.5484 39.9551C13.5318 39.9562 13.5153 39.9595 13.4977 39.9617C13.4734 39.965 13.4492 39.9672 13.4249 39.9705V31.3691C13.4426 31.3713 13.4613 31.3735 13.48 31.3746C13.5528 31.3834 13.6255 31.39 13.7016 31.39H31.9547C32.034 31.39 32.1123 31.3834 32.1883 31.3724C32.2016 31.3713 32.2148 31.3702 32.2269 31.368V31.3845V33.6525V39.9694C32.2027 39.965 32.1784 39.9628 32.1542 39.9606C32.1365 39.9595 32.12 39.9573 32.1035 39.9551ZM32.9443 31.0715C32.9664 31.0561 32.9873 31.0396 33.0083 31.0231C33.0182 31.0153 33.0281 31.0076 33.038 30.9999C33.0678 30.9746 33.0975 30.9492 33.1262 30.9228C33.1306 30.9184 33.1339 30.914 33.1383 30.9106C33.1625 30.8875 33.1857 30.8644 33.2077 30.8401C33.2165 30.8302 33.2254 30.8203 33.2342 30.8104C33.2507 30.7905 33.2683 30.7718 33.2838 30.752C33.2926 30.7409 33.3025 30.7288 33.3113 30.7167C33.3267 30.6969 33.3411 30.677 33.3543 30.6572C33.3631 30.6451 33.3708 30.6329 33.3796 30.6197C33.394 30.5988 33.4072 30.5767 33.4204 30.5558C33.427 30.5437 33.4347 30.5326 33.4414 30.5205C33.4568 30.4941 33.47 30.4665 33.4843 30.4401C33.4876 30.4324 33.492 30.4246 33.4954 30.418C33.5119 30.3828 33.5273 30.3475 33.5416 30.3111C33.5449 30.3023 33.5483 30.2924 33.5516 30.2825C33.5615 30.2549 33.5714 30.2285 33.5802 30.1998C33.5846 30.1866 33.5879 30.1734 33.5923 30.1591C33.5989 30.1348 33.6067 30.1106 33.6122 30.0852C33.6155 30.0709 33.6188 30.0555 33.6221 30.0411C33.6276 30.0169 33.632 29.9915 33.6364 29.9673C33.6386 29.953 33.6419 29.9375 33.643 29.9232C33.6463 29.8968 33.6496 29.8692 33.6518 29.8428C33.6529 29.8295 33.6552 29.8174 33.6552 29.8042C33.6585 29.7645 33.6596 29.7237 33.6596 29.683C33.6596 29.6411 33.6574 29.6003 33.6552 29.5595C33.6541 29.5463 33.6518 29.532 33.6507 29.5188C33.6485 29.4912 33.6452 29.4648 33.6408 29.4383C33.6386 29.4218 33.6353 29.4064 33.632 29.3898C33.6276 29.3656 33.6232 29.3424 33.6177 29.3182C33.6144 29.3017 33.6089 29.284 33.6056 29.2675C33.6 29.2455 33.5945 29.2234 33.5879 29.2014C33.5824 29.1837 33.5769 29.1661 33.5714 29.1485C33.5648 29.1286 33.5571 29.1077 33.5505 29.0879C33.5438 29.0691 33.5361 29.0515 33.5284 29.0339C33.5207 29.0151 33.513 28.9975 33.5042 28.9799C33.4954 28.9611 33.4865 28.9424 33.4766 28.9237C33.4689 28.9071 33.4601 28.8917 33.4513 28.8763C33.4403 28.8564 33.4292 28.8366 33.4182 28.8168C33.4105 28.8035 33.4028 28.7914 33.394 28.7782C33.3807 28.7562 33.3664 28.7352 33.3521 28.7143C33.3466 28.7066 33.34 28.6988 33.3345 28.69C33.2287 28.5435 33.0997 28.4134 32.952 28.3065C32.9509 28.3054 32.9487 28.3043 32.9476 28.3032C32.9212 28.2845 32.8936 28.2657 32.8661 28.2481C32.8595 28.2437 32.8529 28.2393 32.8463 28.236C32.822 28.2206 32.7967 28.2073 32.7713 28.193C32.7647 28.1897 32.7581 28.1853 32.7515 28.182V28.0608H42.358V29.4493V31.1322C42.3547 31.1322 42.3514 31.1322 42.3481 31.1322C42.2985 31.1266 42.2489 31.1244 42.1982 31.1244H32.8672C32.8793 31.1167 32.8914 31.1079 32.9025 31.1002C32.919 31.0881 32.9322 31.0804 32.9443 31.0715ZM13.5462 27.9869C13.5296 27.988 13.5131 27.9913 13.4955 27.9924C13.4734 27.9946 13.4503 27.9968 13.4282 28.0002V23.9645H32.2269V24.2102V27.793V28.0002C32.2038 27.9968 32.1806 27.9946 32.1575 27.9924C32.1409 27.9902 32.1255 27.988 32.109 27.9869C32.0583 27.9825 32.0065 27.9792 31.9547 27.9792H13.7005C13.6487 27.9803 13.5969 27.9825 13.5462 27.9869ZM13.5473 19.4141C13.598 19.4185 13.6487 19.4218 13.6994 19.4218H31.9503C32.001 19.4218 32.0517 19.4185 32.1024 19.4141C32.1189 19.413 32.1354 19.4097 32.1509 19.4086C32.1751 19.4053 32.2005 19.4031 32.2247 19.3998V21.9345V23.4366H13.4249V19.3987C13.4492 19.4031 13.4745 19.4053 13.4999 19.4075C13.5153 19.4097 13.5318 19.4119 13.5473 19.4141ZM42.3503 24.467C42.3536 24.467 42.358 24.467 42.3613 24.4659V27.5296H32.7548V24.4747H42.2015C42.2511 24.4747 42.3007 24.4725 42.3503 24.467ZM47.9134 34.3678H42.8892V33.7396C42.8936 33.7374 42.898 33.7341 42.9035 33.7308C42.9156 33.7231 42.9277 33.7153 42.9399 33.7076C42.9564 33.6977 42.9718 33.6867 42.9873 33.6768C42.9994 33.6691 43.0104 33.6602 43.0225 33.6514C43.0379 33.6404 43.0523 33.6283 43.0677 33.6173C43.0787 33.6084 43.0897 33.5996 43.1008 33.5908C43.1151 33.5787 43.1294 33.5655 43.1437 33.5522C43.1537 33.5434 43.1636 33.5335 43.1735 33.5247C43.1878 33.5104 43.2022 33.496 43.2154 33.4817C43.2242 33.4729 43.233 33.4641 43.2407 33.4542C43.2562 33.4365 43.2716 33.4178 43.2859 33.4002C43.2914 33.3936 43.2969 33.3869 43.3024 33.3792C43.3223 33.3539 43.341 33.3274 43.3597 33.2999C43.3642 33.2944 43.3675 33.2878 43.3708 33.2822C43.3851 33.2613 43.3983 33.2393 43.4104 33.2172C43.4159 33.2073 43.4215 33.1963 43.427 33.1864C43.4369 33.1676 43.4468 33.1489 43.4556 33.1302C43.4611 33.118 43.4666 33.107 43.4722 33.0949C43.4799 33.0773 43.4887 33.0585 43.4953 33.0409C43.5008 33.0288 43.5052 33.0155 43.5096 33.0034C43.5162 32.9847 43.5228 32.9671 43.5284 32.9483C43.5328 32.9351 43.5361 32.9219 43.5405 32.9087C43.546 32.8899 43.5504 32.8712 43.5559 32.8513C43.5592 32.8381 43.5625 32.8249 43.5647 32.8117C43.5691 32.7918 43.5724 32.772 43.5757 32.7511C43.5779 32.7378 43.5802 32.7257 43.5824 32.7125C43.5857 32.6904 43.5879 32.6673 43.5901 32.6453C43.5912 32.6342 43.5923 32.6232 43.5934 32.6122C43.5956 32.5791 43.5967 32.545 43.5967 32.5108C43.5967 32.4381 43.5901 32.3675 43.5802 32.2992H47.9586V34.3678C47.9453 34.3678 47.9299 34.3678 47.9134 34.3678ZM42.9928 32.1471C43.0457 32.2595 43.071 32.3786 43.071 32.5108C43.071 32.556 43.0677 32.6001 43.0611 32.6442V32.6464C43.0148 32.9494 42.8153 33.2095 42.5255 33.3307C42.4296 33.3682 42.3172 33.3891 42.2015 33.3891H32.7548V31.6501H42.2015C42.3183 31.6501 42.4307 31.6711 42.5299 31.7096C42.7305 31.7879 42.8991 31.9466 42.9928 32.1471ZM32.7548 33.917H42.2015C42.2555 33.917 42.3084 33.9137 42.3613 33.9071V34.63V36.2655V40.5634C42.3095 40.5579 42.2566 40.5546 42.2015 40.5546H33.2529C33.1196 40.3926 32.9509 40.256 32.7548 40.1513V33.917ZM43.3653 41.1872C43.3597 41.1795 43.3531 41.1718 43.3476 41.1641C43.3278 41.1354 43.3068 41.1068 43.2837 41.0803C43.2738 41.0682 43.2639 41.0561 43.254 41.0439C43.2242 41.0098 43.1922 40.9756 43.1592 40.9448C43.157 40.9425 43.1548 40.9392 43.1515 40.937C43.1151 40.9029 43.0776 40.872 43.0379 40.8423C43.0258 40.8334 43.0137 40.8257 43.0027 40.8169C42.9729 40.796 42.9432 40.7761 42.9123 40.7574C42.9046 40.753 42.898 40.7475 42.8892 40.742V36.5311H47.9134C47.9288 36.5311 47.9453 36.5311 47.9608 36.53V41.1872C47.9453 41.1872 47.9288 41.1861 47.9134 41.1861H43.3653V41.1872ZM48.1294 35.9679C48.1084 35.9756 48.0853 35.98 48.0633 35.9845C48.0511 35.9867 48.0401 35.9911 48.028 35.9933C47.9916 35.9988 47.9531 36.0021 47.9134 36.0021H42.8892V34.8945H47.9134C47.9531 34.8945 47.9916 34.8978 48.028 34.9034C48.039 34.9056 48.0489 34.9089 48.06 34.9111C48.0842 34.9166 48.1084 34.921 48.1305 34.9287C48.3344 35.0158 48.4699 35.2218 48.4699 35.4434C48.4721 35.6671 48.3377 35.872 48.1294 35.9679ZM47.9608 29.7105V31.7713H43.3862C43.373 31.7504 43.3597 31.7306 43.3465 31.7107C43.3377 31.6986 43.3289 31.6854 43.319 31.6733C43.3035 31.6523 43.2881 31.6325 43.2716 31.6137C43.2617 31.6016 43.2517 31.5895 43.2407 31.5774C43.2231 31.5575 43.2055 31.5388 43.1867 31.5212C43.1768 31.5113 43.1669 31.5002 43.1559 31.4903C43.1272 31.4639 43.0986 31.4385 43.0688 31.4154C43.0578 31.4066 43.0457 31.3989 43.0346 31.3911C43.0137 31.3757 42.9928 31.3603 42.9707 31.346C42.9564 31.336 42.941 31.3283 42.9266 31.3195C42.9145 31.3118 42.9024 31.3041 42.8892 31.2975V29.7127H47.9134C47.9299 29.7116 47.9453 29.7105 47.9608 29.7105ZM48.1261 28.0993C48.3366 28.1952 48.471 28.4002 48.471 28.625C48.471 28.8487 48.3311 29.057 48.1151 29.1463C48.06 29.1716 47.9938 29.1837 47.9123 29.1837H42.8881V28.0586H47.9123C47.9784 28.0586 48.0467 28.0718 48.1261 28.0993ZM42.2015 22.199C42.2555 22.199 42.3084 22.2034 42.3591 22.2122C42.4153 22.2221 42.4693 22.2376 42.52 22.2596C42.5277 22.2629 42.5354 22.264 42.542 22.2662C42.8627 22.4095 43.0699 22.7247 43.0699 23.0773C43.0699 23.4322 42.855 23.7507 42.5266 23.8884C42.4296 23.927 42.3172 23.9479 42.2004 23.9479H32.7537V23.7033V22.2001L42.2015 22.199ZM12.5279 17.7137C12.5279 17.2321 12.8166 16.8001 13.2607 16.6127C13.4018 16.5554 13.5495 16.5257 13.7005 16.5257H31.9514C32.1024 16.5257 32.25 16.5543 32.39 16.6116C32.8451 16.8034 33.1383 17.2354 33.1383 17.7126C33.1383 18.1842 32.8385 18.624 32.3911 18.8058C32.25 18.8631 32.1024 18.8929 31.9514 18.8929H13.7005C13.6608 18.8929 13.6211 18.8907 13.5814 18.8863C13.4712 18.8752 13.3643 18.8477 13.2596 18.8058C12.8221 18.6284 12.5279 18.1898 12.5279 17.7137ZM12.5279 29.6808C12.5279 29.2025 12.8221 28.7661 13.2662 28.5908C13.3974 28.5357 13.5429 28.5082 13.7005 28.5082H31.9536C32.1101 28.5082 32.2567 28.5357 32.3933 28.5942C32.8363 28.7683 33.135 29.2058 33.135 29.6808C33.135 29.7105 33.1339 29.7403 33.1317 29.77C33.1295 29.802 33.1251 29.8351 33.1196 29.8659C33.0545 30.2693 32.7823 30.6164 32.3878 30.7784C32.3228 30.806 32.2545 30.8258 32.1828 30.8401C32.1101 30.8533 32.0329 30.86 31.9514 30.86H13.7005C13.6332 30.86 13.5682 30.8544 13.5065 30.8456C13.4227 30.8324 13.3412 30.8104 13.2651 30.7784C12.8177 30.5944 12.5279 30.1635 12.5279 29.6808ZM13.2563 42.7466C12.8199 42.5758 12.5279 42.1372 12.5279 41.6556C12.5279 41.1795 12.8221 40.7409 13.2607 40.5623C13.4018 40.505 13.5495 40.4753 13.7005 40.4753H31.9514C32.1024 40.4753 32.25 40.5039 32.39 40.5623C32.6115 40.6538 32.7834 40.7894 32.9014 40.9657C32.9036 40.969 32.9069 40.9734 32.9091 40.9767C32.9421 41.0219 32.9719 41.0693 32.9983 41.1167C33.0865 41.2831 33.135 41.4693 33.135 41.6578C33.135 42.1339 32.8374 42.5703 32.3933 42.7444C32.3922 42.7444 32.3911 42.7455 32.39 42.7466C32.3889 42.7466 32.3889 42.7466 32.3878 42.7477C32.2567 42.8028 32.1112 42.8303 31.9536 42.8303C31.9415 42.8303 31.9305 42.8326 31.9183 42.8337H13.7005C13.5495 42.8348 13.4007 42.8061 13.2563 42.7466ZM48.1162 42.7951C48.0622 42.8193 47.996 42.8314 47.9134 42.8314H43.2969C43.2969 42.8303 43.298 42.8303 43.298 42.8292C43.3201 42.8006 43.341 42.7719 43.3608 42.7422C43.3675 42.7323 43.373 42.7223 43.3796 42.7124C43.3928 42.6915 43.406 42.6694 43.4182 42.6474C43.4248 42.6353 43.4314 42.6232 43.438 42.6099C43.449 42.5901 43.4589 42.5692 43.4688 42.5482C43.4755 42.535 43.481 42.5207 43.4865 42.5074C43.4953 42.4865 43.503 42.4667 43.5107 42.4457C43.5162 42.4314 43.5206 42.4171 43.5262 42.4028C43.5328 42.3818 43.5394 42.3609 43.546 42.3388C43.5504 42.3245 43.5537 42.3102 43.5581 42.2948C43.5636 42.2727 43.568 42.2507 43.5724 42.2275C43.5757 42.2132 43.5779 42.1989 43.5802 42.1846C43.5846 42.1592 43.5868 42.135 43.5901 42.1096C43.5912 42.0975 43.5934 42.0854 43.5945 42.0732C43.5978 42.0358 43.5989 41.9983 43.5989 41.9597C43.5989 41.9101 43.5956 41.8617 43.5901 41.8132C43.589 41.7977 43.5857 41.7834 43.5846 41.7691C43.5824 41.7503 43.5802 41.7327 43.5768 41.714H47.9134C47.952 41.714 47.9861 41.7173 48.0192 41.7228C48.0225 41.7228 48.0258 41.7239 48.0291 41.7239C48.0589 41.7294 48.0864 41.7382 48.1106 41.7492C48.1151 41.7514 48.1206 41.7526 48.125 41.7548C48.3322 41.8407 48.4721 42.0479 48.4721 42.2716C48.4721 42.4975 48.3322 42.7058 48.1162 42.7951Z" fill="white"/>
</svg>
