<svg width="60" height="60" viewBox="0 0 60 60" fill="none" xmlns="http://www.w3.org/2000/svg">
<rect width="60" height="60" rx="14" fill="#159E64"/>
<g clip-path="url(#clip0_0_2062)">
<path d="M23.7937 28.4014H15.064C14.8905 28.4014 14.7749 28.517 14.7749 28.6904C14.7749 28.8639 14.8905 28.9795 15.064 28.9795H23.7937C23.9671 28.9795 24.0827 28.8639 24.0827 28.6904C24.0827 28.5748 23.9671 28.4014 23.7937 28.4014Z" fill="white"/>
<path d="M23.7937 31.061H15.064C14.8905 31.061 14.7749 31.1767 14.7749 31.3501C14.7749 31.5235 14.8905 31.6392 15.064 31.6392H23.7937C23.9671 31.6392 24.0827 31.5235 24.0827 31.3501C24.0827 31.2345 23.9671 31.061 23.7937 31.061Z" fill="white"/>
<path d="M23.7937 33.7202H15.064C14.8905 33.7202 14.7749 33.8358 14.7749 34.0093C14.7749 34.1827 14.8905 34.2983 15.064 34.2983H23.7937C23.9671 34.2983 24.0827 34.1827 24.0827 34.0093C24.0827 33.8937 23.9671 33.7202 23.7937 33.7202Z" fill="white"/>
<path d="M48.8844 32.1015C48.8844 31.9858 48.7687 31.8702 48.6531 31.8702C45.8781 31.1765 43.6234 30.1937 41.7734 28.9218V13.1968C41.7734 13.0233 41.6578 12.9077 41.4844 12.9077H30.9047H22.9266H12.2891C12.1156 12.9077 12 13.0233 12 13.1968V41.5249C12 41.6983 12.1156 41.814 12.2891 41.814H36.05C37.2641 43.664 39.0563 45.1093 41.4266 46.0343H41.5422H41.6578C47.15 43.7796 49.5781 39.0968 48.8844 32.1015ZM23.1578 13.4858H30.6156V20.6546L27.3203 18.9202C27.2625 18.8624 27.1469 18.8624 27.0891 18.9202L23.1578 20.7124V13.4858ZM12.5781 41.2358V13.4858H22.6375V21.1171C22.6375 21.2327 22.6953 21.2905 22.7531 21.3483C22.8109 21.4062 22.9266 21.4062 23.0422 21.3483L27.2625 19.4405L30.8469 21.3483C30.9047 21.3483 30.9625 21.4062 30.9625 21.4062C31.0203 21.4062 31.0781 21.4062 31.1359 21.3483C31.1937 21.2905 31.2516 21.2327 31.2516 21.1171V13.4858H41.3109V28.864C39.4609 30.1937 37.2062 31.1765 34.4312 31.8124C34.3156 31.8124 34.2 31.928 34.2 32.0437C33.8531 35.7437 34.3734 38.8077 35.7609 41.2358H12.5781ZM41.5422 45.514C39.2875 44.589 37.6109 43.2593 36.4547 41.4671C36.4547 41.4093 36.3969 41.3515 36.3969 41.3515C34.9516 39.039 34.3734 36.0905 34.7203 32.3905C37.4375 31.6968 39.6922 30.714 41.5422 29.4421C43.3922 30.7718 45.6469 31.7546 48.3641 32.3905C48.9422 38.9811 46.7453 43.3171 41.5422 45.514Z" fill="white"/>
<path d="M47.3235 32.8531C45.011 32.275 43.161 31.4656 41.6579 30.3672H41.6001H41.5423H41.4845H41.4266H41.3688H41.311C39.8079 31.4656 37.9579 32.275 35.6454 32.8531C35.5298 32.8531 35.4141 32.9688 35.4141 33.0844C34.836 38.8078 36.8595 42.6234 41.3688 44.5312H41.4845H41.6001C46.1095 42.6812 48.1329 38.8078 47.5548 33.0844C47.5548 32.9688 47.4391 32.8531 47.3235 32.8531ZM41.5423 43.9531C37.3798 42.1609 35.5298 38.6922 36.0501 33.3734C38.247 32.7953 40.0391 32.0437 41.5423 30.9453C43.0454 31.9859 44.8376 32.7953 47.0345 33.3734C47.497 38.6922 45.7048 42.1609 41.5423 43.9531Z" fill="white"/>
<path d="M41.5422 33.3154C39.2875 33.3154 37.4375 35.1654 37.4375 37.4201C37.4375 39.6748 39.2875 41.5248 41.5422 41.5248C43.7969 41.5248 45.6469 39.6748 45.6469 37.4201C45.6469 35.1654 43.7391 33.3154 41.5422 33.3154ZM41.5422 40.9467C39.5766 40.9467 38.0156 39.3857 38.0156 37.4201C38.0156 35.4545 39.5766 33.8936 41.5422 33.8936C43.5078 33.8936 45.0688 35.4545 45.0688 37.4201C45.0109 39.3279 43.45 40.9467 41.5422 40.9467Z" fill="white"/>
<path d="M43.2187 35.9171L40.7906 38.3452L39.8078 37.3624C39.6922 37.2468 39.5188 37.2468 39.4031 37.3624C39.2875 37.478 39.2875 37.6515 39.4031 37.7671L40.5594 38.9233C40.6172 38.9811 40.675 38.9811 40.7328 38.9811C40.7906 38.9811 40.9062 38.9811 40.9062 38.9233L43.5656 36.264C43.6812 36.1483 43.6812 35.9749 43.5656 35.8593C43.5078 35.8015 43.3344 35.8015 43.2187 35.9171Z" fill="white"/>
</g>
<defs>
<clipPath id="clip0_0_2062">
<rect width="37" height="37" fill="white" transform="translate(12 11)"/>
</clipPath>
</defs>
</svg>
