<svg width="60" height="60" viewBox="0 0 60 60" fill="none" xmlns="http://www.w3.org/2000/svg">
<rect width="60" height="60" rx="14" fill="#159E64"/>
<g clip-path="url(#clip0_0_2051)">
<path d="M46.3986 36.264C45.7048 35.5124 44.6642 35.339 43.797 35.8015L36.397 39.964C36.397 39.6171 36.3392 39.3281 36.2236 38.9812C35.9923 38.4609 35.5876 38.0562 35.0673 37.8827L26.9157 34.9343C25.7595 34.5296 24.4876 34.6452 23.3892 35.2812L19.4579 37.6515L18.9376 36.7843C18.8798 36.7265 18.822 36.6687 18.7642 36.6687C18.7064 36.6687 18.5907 36.6687 18.5329 36.7265L14.3126 39.3281C14.197 39.3859 14.1392 39.5593 14.197 39.7327L19.1111 47.9421C19.1689 47.9999 19.2267 48.0577 19.2845 48.0577H19.3423C19.4001 48.0577 19.4579 48.0577 19.5157 47.9999L23.6782 45.514C23.7939 45.4562 23.8517 45.2827 23.7939 45.1093L23.3314 44.2999L24.4876 43.6062C24.6611 43.4906 24.9501 43.4906 25.1236 43.5484L33.4486 46.5546C33.622 46.6124 33.8532 46.6702 34.0267 46.6702C34.3157 46.6702 34.6626 46.5546 34.9517 46.439L46.0517 39.5015C46.572 39.1546 46.9189 38.6343 47.0345 37.9984C46.9767 37.3046 46.8032 36.7265 46.3986 36.264ZM19.3423 47.3062L14.7173 39.6171L18.4751 37.3046L18.9954 38.1718L22.9845 45.1093L19.3423 47.3062ZM46.3407 37.8827C46.2829 38.3452 45.9939 38.7499 45.647 38.9812L34.547 45.9187C34.2579 46.0921 33.9111 46.1499 33.5642 46.0343L25.2392 43.0281C24.8345 42.9124 24.4298 42.9124 24.0829 43.1437L22.9267 43.8374L19.6892 38.1718L23.6782 35.8015C24.6032 35.2234 25.7017 35.1656 26.6845 35.5124L34.8361 38.4609C35.2407 38.5765 35.5298 38.8656 35.7032 39.2702C35.8767 39.6171 35.8767 40.0796 35.7611 40.4265C35.472 41.1781 34.6626 41.5249 33.9111 41.2937L29.3439 39.8484C29.1704 39.7906 29.0548 39.9062 28.997 40.0218C28.9392 40.1952 29.0548 40.3109 29.1704 40.3687L33.6798 41.814C33.9111 41.8718 34.0845 41.9296 34.3157 41.9296C35.1251 41.9296 35.8767 41.4671 36.2236 40.7156L44.0861 36.3218C44.722 35.9749 45.5314 36.0906 45.9939 36.6687C46.2829 36.9577 46.3986 37.4202 46.3407 37.8827Z" fill="white"/>
<path d="M28.1297 21.4062H25.875C25.8172 21.4062 25.8172 21.4062 25.7594 21.4062C25.7016 21.4062 25.7016 21.4063 25.7016 21.4641C25.7016 21.5219 25.6438 21.5219 25.6438 21.5219L24.8922 23.1406C24.8344 23.2563 24.8344 23.3141 24.8922 23.4297C24.95 23.4875 25.0078 23.5453 25.1234 23.5453H25.4703L24.7188 24.5281L24.8922 24.1234C24.95 24.0078 24.8922 23.95 24.8344 23.8922C24.7766 23.8344 24.7187 23.7188 24.6031 23.7188H24.3719L24.95 21.7531C24.95 21.7531 24.95 21.7531 24.95 21.6953C24.95 21.6953 24.95 21.6953 24.95 21.6375V21.5797V21.5219C24.95 21.5219 24.95 21.4641 24.8922 21.4641C24.8922 21.4641 24.8922 21.4062 24.8344 21.4062C24.8344 21.4062 24.8344 21.4062 24.7766 21.4062H24.7188C24.7188 21.4062 24.7187 21.4062 24.6609 21.4062C24.6609 21.4062 24.6609 21.4062 24.6031 21.4062H21.25C21.0766 21.4062 20.9609 21.5219 20.9609 21.6953V24.1234C20.9609 25.8578 22.2328 27.3609 23.9094 27.7078V30.425H22.5797C21.8859 30.425 21.3656 31.0031 21.3656 31.6969C21.3656 31.8703 21.4813 31.9859 21.6547 31.9859H27.6672C27.8406 31.9859 27.9563 31.8703 27.9563 31.6969C27.9563 31.0031 27.3781 30.4828 26.7422 30.4828H25.4125V27.7078C27.0891 27.3609 28.3609 25.9156 28.3609 24.1234V21.6953C28.4187 21.5219 28.2453 21.4062 28.1297 21.4062ZM27.8406 24.1234C27.8406 25.6844 26.6844 27.0141 25.1234 27.1875C25.1234 27.1875 25.1234 27.1875 25.0656 27.1875H25.0078C25.0078 27.1875 24.95 27.1875 24.95 27.2453C24.95 27.2453 24.8922 27.2453 24.8922 27.3031C24.8922 27.3031 24.8922 27.3031 24.8344 27.3609V27.4187V27.4766V27.5344V30.7719C24.8344 30.9453 24.95 31.0609 25.1234 31.0609H26.7422C27.0312 31.0609 27.2625 31.2344 27.3203 31.4656H22.0016C22.1172 31.2344 22.3484 31.0609 22.6375 31.0609H24.2563C24.4297 31.0609 24.5453 30.9453 24.5453 30.7719V27.5344C24.5453 27.5344 24.5453 27.5344 24.5453 27.4766V27.4187V27.3609C24.5453 27.3609 24.5453 27.3031 24.4875 27.3031C24.4875 27.3031 24.4875 27.3031 24.4297 27.2453C24.4297 27.2453 24.4297 27.2453 24.3719 27.1875H24.3141C24.3141 27.1875 24.3141 27.1875 24.2563 27.1875C22.7531 27.0141 21.5969 25.6844 21.5969 24.1234V21.9844H24.2563L23.6781 23.95C23.6781 24.0078 23.6781 24.1234 23.7359 24.1812C23.7937 24.2391 23.8516 24.2969 23.9672 24.2969H24.1984L23.6203 25.9156C23.5625 26.0312 23.6203 26.2047 23.7359 26.2625C23.7937 26.2625 23.8516 26.3203 23.8516 26.3203C23.9094 26.3203 24.025 26.2625 24.0828 26.2047L26.2797 23.4297C26.3375 23.3719 26.3375 23.1984 26.3375 23.1406C26.2797 23.025 26.1641 22.9672 26.1062 22.9672H25.5859L26.0484 21.9844H27.8406V24.1234Z" fill="white"/>
<path d="M19.3999 33.0844H41.5999C41.7733 33.0844 41.889 32.9688 41.889 32.7953V11.2891C41.889 11.1156 41.7733 11 41.5999 11H19.3999C19.2265 11 19.1108 11.1156 19.1108 11.2891V32.7953C19.1108 32.9688 19.2265 33.0844 19.3999 33.0844ZM27.7249 11.5781H33.2749V18.2266L30.9046 16.9547C30.8468 16.8969 30.7312 16.8969 30.6733 16.9547L27.7827 18.2844V11.5781H27.7249ZM19.689 11.5781H27.1468V18.6891C27.1468 18.8047 27.2046 18.8625 27.2624 18.9203C27.3202 18.9781 27.378 18.9781 27.4358 18.9781H27.5515L30.7312 17.5328L33.3905 18.9781C33.5062 19.0359 33.564 19.0359 33.6796 18.9781C33.7374 18.9203 33.7952 18.8625 33.7952 18.7469V11.5781H41.253V32.5063H19.689V11.5781Z" fill="white"/>
<path d="M33.7375 27.0721L34.4312 26.3783V29.6736C34.4312 29.8471 34.5468 29.9627 34.7203 29.9627C34.8937 29.9627 35.0093 29.8471 35.0093 29.6736V26.3783L35.7031 27.0721C35.7609 27.1299 35.8187 27.1299 35.8765 27.1299C35.9343 27.1299 36.05 27.1299 36.05 27.0721C36.1656 26.9564 36.1656 26.783 36.05 26.6674L34.9515 25.4533C34.9515 25.4533 34.8937 25.3955 34.8359 25.3955C34.7781 25.3955 34.7203 25.3955 34.6625 25.3955C34.6625 25.3955 34.6625 25.3955 34.6046 25.3955C34.5468 25.3955 34.489 25.4533 34.489 25.4533L33.275 26.6674C33.1593 26.783 33.1593 26.9564 33.275 27.0721C33.4484 27.1877 33.6218 27.1877 33.7375 27.0721Z" fill="white"/>
<path d="M38.6515 25.4533C38.6515 25.4533 38.5937 25.3955 38.5358 25.3955C38.478 25.3955 38.4202 25.3955 38.3624 25.3955C38.3624 25.3955 38.3624 25.3955 38.3046 25.3955C38.2468 25.3955 38.189 25.4533 38.189 25.4533L36.9749 26.6674C36.8593 26.783 36.8593 26.9564 36.9749 27.0721C37.0905 27.1877 37.264 27.1877 37.3796 27.0721L38.1312 26.3783V29.6736C38.1312 29.8471 38.2468 29.9627 38.4202 29.9627C38.5937 29.9627 38.7093 29.8471 38.7093 29.6736V26.3783L39.403 27.0721C39.4608 27.1299 39.5187 27.1299 39.5765 27.1299C39.6343 27.1299 39.7499 27.1299 39.7499 27.0721C39.8655 26.9564 39.8655 26.783 39.7499 26.6674L38.6515 25.4533Z" fill="white"/>
<path d="M39.6921 30.9453H33.564C33.3905 30.9453 33.2749 31.0609 33.2749 31.2344C33.2749 31.4078 33.3905 31.5234 33.564 31.5234H39.6921C39.8655 31.5234 39.9812 31.4078 39.9812 31.2344C39.9812 31.0609 39.8655 30.9453 39.6921 30.9453Z" fill="white"/>
</g>
<defs>
<clipPath id="clip0_0_2051">
<rect width="37" height="37" fill="white" transform="translate(12 11)"/>
</clipPath>
</defs>
</svg>
