<svg width="60" height="60" viewBox="0 0 60 60" fill="none" xmlns="http://www.w3.org/2000/svg">
<rect width="60" height="60" rx="14" fill="#159E64"/>
<path d="M13.442 23.507C12.8434 23.507 12.3421 23.2674 12.1155 22.828C11.9306 22.4577 11.9689 22.0267 12.222 21.6097C12.4675 21.2171 12.8798 20.8834 13.3547 20.691C16.1621 19.5216 19.1218 18.8554 22.1492 18.7119L22.1683 19.2808H22.1628C19.215 19.4215 16.32 20.0727 13.5713 21.2176C13.2023 21.3672 12.8881 21.6186 12.7066 21.9088C12.6229 22.0462 12.498 22.3198 12.6232 22.57C12.8264 22.9637 13.5457 23.0577 14.2239 22.7758C14.4986 22.6634 14.7443 22.5634 14.9957 22.4744C15.1442 22.4216 15.3068 22.5 15.3588 22.6479C15.4114 22.7964 15.3338 22.9587 15.1853 23.0116C14.9429 23.0972 14.7054 23.1945 14.4683 23.2913C14.1165 23.437 13.7651 23.507 13.442 23.507Z" fill="white"/>
<path d="M18.9177 28.8573C18.2946 28.8573 17.7157 28.4725 17.5088 27.8747C17.4118 27.5772 17.4243 27.258 17.5397 26.9689C16.7322 27.2224 15.8736 26.8866 15.58 26.1965C15.4513 25.8689 15.4644 25.5136 15.6101 25.1938C14.8833 25.2823 14.226 24.9981 13.9666 24.4398C13.7975 24.0717 13.8389 23.6396 14.08 23.252C14.2752 22.9311 14.5924 22.6575 14.972 22.4835C15.034 22.4562 15.0937 22.4301 15.1538 22.4101C15.3031 22.3584 15.4641 22.4401 15.5141 22.5891C15.5642 22.7382 15.4838 22.9 15.3345 22.9495C15.2917 22.9639 15.2492 22.9834 15.2063 23.0029C14.9319 23.1285 14.7031 23.3232 14.5649 23.5506C14.4234 23.778 14.395 24.0083 14.4834 24.2007C14.6745 24.6122 15.3087 24.7601 15.927 24.536C16.1698 24.442 16.4181 24.3575 16.6716 24.2724C16.6786 24.2702 16.6858 24.268 16.6928 24.2652C16.8421 24.2168 17.0025 24.2969 17.0517 24.4465C17.1012 24.5955 17.0206 24.7562 16.8718 24.8062C16.8654 24.8079 16.8593 24.8101 16.8532 24.8124C16.5587 24.913 16.3138 25.1021 16.1795 25.334C16.0519 25.5425 16.0266 25.7761 16.1069 25.9807C16.2865 26.4011 16.8535 26.5957 17.3926 26.4183C17.7832 26.2938 18.1714 26.1809 18.5645 26.0786C18.5757 26.0758 18.5871 26.073 18.5982 26.0702C18.7494 26.0324 18.904 26.1253 18.9424 26.2771C18.9808 26.4289 18.889 26.5829 18.7375 26.6224C18.7286 26.6246 18.7197 26.6269 18.7108 26.6291C18.4667 26.6958 18.2556 26.851 18.1291 27.0584C18.0085 27.2569 17.9798 27.4827 18.0485 27.6934C18.1989 28.1277 18.6852 28.378 19.1534 28.2579C20.3732 27.9442 21.6269 27.7707 22.8792 27.7418C23.0388 27.7346 23.1667 27.863 23.1706 28.0199C23.1742 28.1772 23.0496 28.3074 22.8923 28.3112C21.6833 28.339 20.473 28.5064 19.2952 28.8095C19.1693 28.8417 19.0428 28.8573 18.9177 28.8573Z" fill="white"/>
<path d="M41.9107 23.5797C41.8059 23.5797 41.7052 23.5219 41.6554 23.4218C41.5854 23.2811 41.6429 23.1098 41.7836 23.0403C42.8961 22.487 44.0866 22.0544 45.3225 21.7541C45.793 21.6435 46.1033 21.1941 46.0307 20.7309C45.9946 20.5129 45.8661 20.3294 45.6695 20.2165C45.4541 20.0853 45.1888 20.0469 44.9372 20.107C44.9338 20.1081 44.9305 20.1087 44.9274 20.1098C44.7729 20.1426 44.621 20.0525 44.5835 19.9007C44.5462 19.7478 44.6394 19.5943 44.792 19.5565C44.7959 19.5554 44.7995 19.5548 44.8034 19.5537C45.2041 19.4569 45.6042 19.3763 46.0104 19.3018C46.5782 19.205 46.9875 18.7696 46.9455 18.3103C46.926 18.0956 46.7978 17.9055 46.5849 17.7753C46.3494 17.6335 46.0354 17.5829 45.729 17.6363C45.5706 17.6691 45.4265 17.5601 45.3996 17.405C45.3968 17.3883 45.3954 17.3716 45.3954 17.3555C45.3954 17.2198 45.493 17.0997 45.6312 17.0758C45.8953 17.0296 46.1594 16.989 46.4297 16.949C47.0831 16.8628 47.5747 16.4352 47.5538 15.9736C47.5391 15.7723 47.4037 15.5805 47.1732 15.442C46.9205 15.2891 46.5687 15.2274 46.2062 15.2752C46.0532 15.2963 45.9087 15.1868 45.8875 15.0311C45.8664 14.8759 45.9746 14.733 46.1294 14.7108C46.4533 14.6646 46.7831 14.6301 47.1126 14.6007C47.8547 14.5289 48.4347 14.1169 48.4305 13.6631C48.4255 13.3895 48.1836 13.2049 48.0398 13.1192C47.7501 12.9519 47.3548 12.8762 46.9597 12.9129C43.9971 13.1899 41.1302 13.9723 38.4385 15.2385C38.2953 15.3052 38.1263 15.2435 38.0595 15.1022C37.9928 14.9599 38.0537 14.7903 38.196 14.7235C40.9476 13.429 43.8781 12.6293 46.9065 12.3457C47.424 12.2979 47.9295 12.3969 48.3282 12.6282C48.7486 12.8785 48.9924 13.2521 48.9999 13.6548C49.0055 14.2948 48.4491 14.8559 47.6467 15.0789C47.9309 15.3063 48.098 15.6061 48.1221 15.9403C48.1508 16.5681 47.7004 17.1286 47.0205 17.3855C47.3053 17.6085 47.4815 17.9188 47.5127 18.258C47.5805 19.0015 46.9825 19.6966 46.1455 19.8562C46.3808 20.0531 46.5412 20.33 46.5929 20.6403C46.7116 21.3982 46.2114 22.13 45.4552 22.308C44.2624 22.5977 43.1116 23.0159 42.0372 23.5497C41.9963 23.5703 41.9532 23.5797 41.9107 23.5797Z" fill="white"/>
<path d="M26.9075 36.6865C25.6683 36.6865 24.5377 35.8451 24.2258 34.5895L21.0019 21.6233C20.6349 20.1458 21.5388 18.6449 23.0171 18.2773L37.2356 14.7423C38.7154 14.3786 40.216 15.2784 40.583 16.7548L43.8066 29.7215C44.1739 31.2002 43.2703 32.7022 41.7919 33.0697L27.5734 36.6048C27.3507 36.6598 27.1274 36.6865 26.9075 36.6865ZM37.9021 15.23C37.7272 15.23 37.5498 15.2511 37.373 15.2951L23.1545 18.8301C21.9809 19.122 21.2632 20.3132 21.5546 21.4859L24.7785 34.4522C25.0702 35.6261 26.2613 36.3417 27.4361 36.052L41.6546 32.517C42.8282 32.225 43.5455 31.0328 43.2539 29.8589L40.0302 16.8927C39.7828 15.8967 38.8855 15.23 37.9021 15.23Z" fill="white"/>
<path d="M28.9628 22.8536C28.9186 22.8536 28.8735 22.8486 28.8288 22.8392C28.6005 22.7886 28.4237 22.6162 28.3672 22.3899L27.1616 17.5402C27.1436 17.4668 27.1552 17.389 27.1942 17.3245C27.2331 17.26 27.2959 17.2133 27.3693 17.1949L32.7336 15.8614C32.886 15.8236 33.0405 15.917 33.0786 16.0689L34.2845 20.9185C34.3407 21.1453 34.2645 21.3806 34.086 21.5318C33.9078 21.6842 33.662 21.7209 33.4487 21.6291L31.0954 20.626L29.436 22.6267C29.3184 22.7724 29.1449 22.8536 28.9628 22.8536ZM28.92 22.2519C28.9202 22.2519 28.9931 22.2686 28.9934 22.2686L30.6032 20.2801C30.7748 20.0693 31.0676 19.9954 31.3178 20.1016L33.6725 21.1053L34.0081 20.9874L33.7318 21.0564L32.5946 16.4826L27.783 17.6787L28.92 22.2519Z" fill="white"/>
<path d="M26.3893 34.509C26.2616 34.509 26.1454 34.4222 26.1132 34.2932C26.0754 34.1403 26.1682 33.9857 26.3209 33.9479L32.3683 32.4443C32.5209 32.407 32.6752 32.4999 32.7133 32.6517C32.7511 32.8046 32.6583 32.9592 32.5056 32.997L26.4582 34.5007C26.4351 34.5062 26.4121 34.509 26.3893 34.509Z" fill="white"/>
<path d="M27.6771 32.8453C27.5495 32.8453 27.4333 32.7585 27.401 32.6295L26.6022 29.4159C26.5644 29.263 26.6572 29.1084 26.8099 29.0706C26.9625 29.0339 27.1168 29.1256 27.1549 29.278L27.9537 32.4916C27.9916 32.6445 27.8987 32.7991 27.746 32.8369C27.723 32.8425 27.6999 32.8453 27.6771 32.8453Z" fill="white"/>
<path d="M26.2483 30.6192C26.1983 30.6192 26.1477 30.6058 26.1018 30.5786C25.967 30.4974 25.9236 30.3222 26.0048 30.1877L26.6243 29.1584C26.7049 29.0227 26.8801 28.981 27.0149 29.061L28.0442 29.68C28.1788 29.7612 28.2224 29.9363 28.1415 30.0709C28.0598 30.2055 27.8852 30.2477 27.7506 30.1682L26.9654 29.6961L26.4925 30.4813C26.4391 30.5703 26.3448 30.6192 26.2483 30.6192Z" fill="white"/>
<path d="M30.5196 32.1386C30.392 32.1386 30.2758 32.0518 30.2435 31.9228L29.4447 28.7092C29.4069 28.5563 29.4998 28.4017 29.6524 28.3639C29.8042 28.3277 29.9594 28.4189 29.9975 28.5713L30.7963 31.7849C30.8341 31.9378 30.7412 32.0924 30.5886 32.1302C30.5655 32.1358 30.5424 32.1386 30.5196 32.1386Z" fill="white"/>
<path d="M29.0909 29.9124C29.0408 29.9124 28.9902 29.8991 28.9443 29.8718C28.8095 29.7906 28.7661 29.6155 28.8473 29.4809L29.4668 28.4516C29.548 28.3159 29.7229 28.2736 29.8574 28.3543L30.8867 28.9737C31.0216 29.0549 31.065 29.2301 30.9838 29.3647C30.9026 29.4998 30.7274 29.5415 30.5931 29.462L29.8077 28.9893L29.335 29.7745C29.2816 29.8635 29.1874 29.9124 29.0909 29.9124Z" fill="white"/>
<path d="M41.405 42.8965C41.2805 42.8965 41.1662 42.8142 41.1312 42.688L39.7296 37.6548C39.6873 37.5036 39.7757 37.3468 39.9272 37.3045C40.0782 37.2622 40.2359 37.3507 40.2778 37.5025L41.6795 42.5356C41.7217 42.6868 41.6333 42.8437 41.4818 42.8859C41.4562 42.8931 41.4303 42.8965 41.405 42.8965Z" fill="white"/>
<path d="M39.6256 36.5059C39.501 36.5059 39.3867 36.4236 39.3517 36.2974L39.0106 35.0723C38.9683 34.9211 39.0567 34.7642 39.2082 34.722C39.3601 34.6797 39.5166 34.7681 39.5589 34.9199L39.9 36.145C39.9423 36.2963 39.8539 36.4531 39.7023 36.4953C39.6767 36.5026 39.6509 36.5059 39.6256 36.5059Z" fill="white"/>
<path d="M37.411 44.5331C37.2865 44.5331 37.1722 44.4508 37.1372 44.3246L36.387 41.6298C36.3447 41.4786 36.4334 41.3218 36.5847 41.2795C36.7365 41.2361 36.893 41.3257 36.9353 41.4775L37.6855 44.1722C37.7277 44.3235 37.639 44.4803 37.4878 44.5226C37.4622 44.5298 37.4363 44.5331 37.411 44.5331Z" fill="white"/>
<path d="M36.2909 40.5104C36.1664 40.5104 36.0521 40.4281 36.0171 40.3018L35.0167 36.7095C34.9744 36.5583 35.0628 36.4015 35.2143 36.3592C35.3664 36.3169 35.5227 36.4053 35.565 36.5572L36.5654 40.1495C36.6076 40.3007 36.5192 40.4575 36.3677 40.4998C36.3421 40.507 36.3162 40.5104 36.2909 40.5104Z" fill="white"/>
<path d="M33.405 46.1699C33.2804 46.1699 33.1661 46.0876 33.1311 45.9613L31.8821 41.4765C31.8399 41.3253 31.9283 41.1684 32.0798 41.1262C32.2314 41.0828 32.3882 41.1723 32.4304 41.3241L33.6794 45.809C33.7217 45.9602 33.6332 46.117 33.4817 46.1593C33.4561 46.1665 33.4303 46.1699 33.405 46.1699Z" fill="white"/>
<path d="M31.7221 40.1262C31.5975 40.1262 31.4832 40.0439 31.4482 39.9176L31.0106 38.3461C30.9683 38.1949 31.0567 38.0381 31.2082 37.9958C31.3601 37.9524 31.5166 38.042 31.5589 38.1938L31.9965 39.7653C32.0388 39.9165 31.9503 40.0733 31.7988 40.1156C31.7732 40.1228 31.7474 40.1262 31.7221 40.1262Z" fill="white"/>
</svg>
